<?xml version="1.0" standalone="no"?><!DOCTYPE svg PUBLIC "-//W3C//DTD SVG 1.1//EN" "http://www.w3.org/Graphics/SVG/1.1/DTD/svg11.dtd"><svg class="icon" width="200px" height="200.00px" viewBox="0 0 1024 1024" version="1.1" xmlns="http://www.w3.org/2000/svg"><path fill="#838a9a" d="M505.38 63.3c-247.4 3.29-445.3 206.51-442.01 453.91s206.51 445.3 453.91 442.01c247.4-3.29 445.3-206.51 442.01-453.91v-0.23C955.88 257.77 752.7 60.01 505.38 63.3z m49.67 149.29c28.08-4.39 54.41 14.81 58.8 42.89 0.71 4.57 0.81 9.21 0.28 13.81-1.28 41.53-35.98 74.16-77.51 72.89-1.44-0.04-2.87-0.13-4.3-0.26-43.09 0-63.64-21.64-62.47-57.54 2.79-42.57 39.56-74.83 82.14-72.04 1.06 0.07 2.12 0.16 3.18 0.27l-0.12-0.02z m-116.73 578.7c-31.16 0-53.93-18.93-32.14-101.95L441.82 542c6.13-23.63 7.22-33.04 0-33.04a236.65 236.65 0 0 0-73.61 32.37l-15.54-25.48c75.6-63.22 162.76-100.3 200.17-100.3 31.05 0 36.4 36.85 20.78 93.41L532.6 663.84c-7.22 27.36-4.06 36.85 3.05 36.85 25.87-5.7 49.92-17.73 70-35l17.61 23.63c-73.52 73.61-153.86 101.97-184.94 101.97z" /></svg>