<?xml version="1.0" standalone="no"?><!DOCTYPE svg PUBLIC "-//W3C//DTD SVG 1.1//EN" "http://www.w3.org/Graphics/SVG/1.1/DTD/svg11.dtd"><svg class="icon" width="200px" height="166.78px" viewBox="0 0 1228 1024" version="1.1" xmlns="http://www.w3.org/2000/svg"><path fill="#838a9a" d="M1093.4272 819.2V54.203733c0-25.053867-17.749333-45.4656-39.7312-45.4656H176.196267C154.282667 8.738133 136.533333 29.013333 136.533333 54.203733V819.2H68.266667a68.266667 68.266667 0 0 0-68.266667 68.266667v25.3952c0 25.053867 17.749333 45.533867 39.7312 45.533866h1148.586667c21.981867 0 39.7312-20.2752 39.7312-45.533866V887.466667a68.266667 68.266667 0 0 0-68.266667-68.266667h-66.3552zM1024 682.666667H204.8V68.266667h819.2v614.4z m-546.133333 102.4a34.133333 34.133333 0 0 1 34.133333-34.133334h204.8a34.133333 34.133333 0 0 1 0 68.266667h-204.8a34.133333 34.133333 0 0 1-34.133333-34.133333z m372.736-543.402667a44.373333 44.373333 0 0 0-59.8016-2.730667L617.130667 383.658667 509.269333 275.797333a44.373333 44.373333 0 0 0-59.118933-3.2768l-170.666667 136.533334a44.373333 44.373333 0 1 0 55.432534 69.358933L474.589867 366.592 582.997333 475.136a44.373333 44.373333 0 0 0 59.8016 2.730667l173.6704-144.725334 73.728 73.728a44.373333 44.373333 0 1 0 62.805334-62.805333l-102.4-102.4z" /></svg>