<?xml version="1.0" standalone="no"?><!DOCTYPE svg PUBLIC "-//W3C//DTD SVG 1.1//EN" "http://www.w3.org/Graphics/SVG/1.1/DTD/svg11.dtd"><svg t="1599909807431" class="icon" viewBox="0 0 1024 1024" version="1.1" xmlns="http://www.w3.org/2000/svg" p-id="5673" xmlns:xlink="http://www.w3.org/1999/xlink" width="200" height="200"><defs><style type="text/css">html, * { user-select: text !important; }
</style></defs><path d="M905.846154 1024 118.153846 1024C74.633846 1024 39.384615 988.750769 39.384615 945.230769 39.384615 901.710769 74.633846 866.461538 118.153846 866.461538L472.615385 866.461538 472.615385 627.436308C317.243077 608.019692 196.923077 475.726769 196.923077 315.076923 196.923077 141.075692 337.998769 0 512 0 686.001231 0 827.076923 141.075692 827.076923 315.076923 827.076923 475.726769 706.756923 608.019692 551.384615 627.436308L551.384615 866.461538 905.846154 866.461538C949.366154 866.461538 984.615385 901.710769 984.615385 945.230769 984.615385 988.750769 949.366154 1024 905.846154 1024ZM610.461538 236.307692C643.072 236.307692 669.538462 209.841231 669.538462 177.230769 669.538462 144.580923 643.072 118.153846 610.461538 118.153846 577.811692 118.153846 551.384615 144.580923 551.384615 177.230769 551.384615 209.841231 577.811692 236.307692 610.461538 236.307692Z" p-id="5674"></path></svg>