<?xml version="1.0" standalone="no"?><!DOCTYPE svg PUBLIC "-//W3C//DTD SVG 1.1//EN" "http://www.w3.org/Graphics/SVG/1.1/DTD/svg11.dtd"><svg t="1599906863171" class="icon" viewBox="0 0 1024 1024" version="1.1" xmlns="http://www.w3.org/2000/svg" p-id="4503" xmlns:xlink="http://www.w3.org/1999/xlink" width="200" height="200"><defs><style type="text/css">html, * { user-select: text !important; }
</style></defs><path d="M235.672216 507.018378c0.138378-1.466811 0.276757-2.905946 0.553514-4.345081 0.166054-0.747243 0.359784-1.466811 0.774919-2.850594a46.218378 46.218378 0 0 1 1.632865-5.175352c0.83027-2.075676 1.881946-4.068324 3.431783-6.78054 2.131027-3.570162 4.400432-6.531459 6.891244-9.049946 1.356108-1.328432 2.767568-2.490811 3.874594-3.210379L711.99827 12.315676c16.550054-16.605405 45.858595-16.051892 62.962162 1.217729 8.524108 8.579459 13.367351 19.871135 13.644109 31.799352 0.276757 12.09427-4.151351 23.35827-12.454055 31.744L345.516973 511.529514l430.633513 434.480432c8.302703 8.38573 12.730811 19.64973 12.454055 31.716324a46.495135 46.495135 0 0 1-13.644109 31.827027c-8.800865 8.856216-20.369297 13.754811-32.57427 13.754811-11.540757 0-22.361946-4.483459-30.387892-12.592432L253.107892 547.812324a39.852973 39.852973 0 0 1-4.151351-3.570162 48.709189 48.709189 0 0 1-7.472433-10.129297 49.539459 49.539459 0 0 1-2.795243-5.590487 46.08 46.08 0 0 1-1.85427-5.839567l-0.553514-2.158703a49.650162 49.650162 0 0 1-0.747243-6.199351l-0.166054-2.739892c0-1.107027 0.083027-2.158703 0.276757-4.566487z" p-id="4504"></path></svg>