<?xml version="1.0" standalone="no"?><!DOCTYPE svg PUBLIC "-//W3C//DTD SVG 1.1//EN" "http://www.w3.org/Graphics/SVG/1.1/DTD/svg11.dtd"><svg class="icon" width="200px" height="200.00px" viewBox="0 0 1024 1024" version="1.1" xmlns="http://www.w3.org/2000/svg"><path fill="#838a9a" d="M863.663158 101.052632H652.126316C631.915789 41.768421 575.326316 0 509.305263 0c-66.021053 0-121.263158 41.768421-142.821052 101.052632H167.073684c-61.978947 0-111.831579 49.852632-111.831579 111.831579v684.463157c0 61.978947 49.852632 111.831579 111.831579 111.831579h684.463158c61.978947 0 111.831579-49.852632 111.831579-111.831579V202.105263c1.347368-55.242105-44.463158-101.052632-99.705263-101.052631z m-354.357895 0c28.294737 0 51.2 22.905263 51.2 51.2 0 28.294737-22.905263 51.2-51.2 51.2-28.294737 0-51.2-22.905263-51.2-51.2 1.347368-28.294737 24.252632-51.2 51.2-51.2zM610.357895 808.421053H257.347368v-101.052632h354.357895l-1.347368 101.052632z m152.252631-202.105264H257.347368v-101.052631h505.263158V606.315789z m0-202.105263H257.347368l-13.473684-101.052631h518.736842V404.210526z m0 0" /></svg>