<?xml version="1.0" standalone="no"?><!DOCTYPE svg PUBLIC "-//W3C//DTD SVG 1.1//EN" "http://www.w3.org/Graphics/SVG/1.1/DTD/svg11.dtd"><svg class="icon" width="200px" height="200.00px" viewBox="0 0 1024 1024" version="1.1" xmlns="http://www.w3.org/2000/svg"><path fill="#838a9a" d="M356.801379 300.792653H692.221477c22.630309 0 44.400462-9.400282 58.920724-26.419094 34.611062-40.365919 67.46085-89.90684 74.813141-134.286823C840.823762 51.203891 801.993838 6.107112 689.395248 6.107112c-112.57811 0-74.485462 72.45795-118.271527 78.438086-32.60403 4.444142-31.457154-37.764969-82.697909-78.335687-36.822893-28.999564-78.069448 52.961068-126.688773 53.452586C305.028146 60.419854 225.279345 45.039436 225.279345 140.086736c0 38.399846 34.283383 90.316439 71.741153 133.344746a79.339203 79.339203 0 0 0 59.780881 27.361171z m418.466166 84.623021c-17.899448-19.90648-43.888464-31.068036-70.921957-31.068035H346.3771a95.907456 95.907456 0 0 0-68.710125 28.589965C165.191265 498.546742 61.44 663.573922 61.44 783.9344 61.44 890.020376 170.126925 1024 304.188469 1024h415.619458C853.86947 1024 962.556396 891.167251 962.556396 783.9344c0-122.53135-83.435186-282.909588-187.288851-398.518726z m-109.321803 146.042296l-71.986912 128.101888c-6.307815 11.263955 2.007032 25.06742 15.05274 25.067419h20.418478c9.461722 0 17.244091 7.53661 17.244091 16.936893a17.100732 17.100732 0 0 1-17.244091 16.916412h-51.343155a17.899448 17.899448 0 0 0-18.104247 17.653689v8.355807c0 9.297883 7.679969 16.936892 17.244091 16.936892h52.203311c9.461722 0 17.244091 7.53661 17.244091 16.916413a17.039292 17.039292 0 0 1-17.244091 16.936892h-52.203311a17.100732 17.100732 0 0 0-17.244091 16.916412v43.048788a17.100732 17.100732 0 0 1-17.264571 16.936892h-31.252355a17.100732 17.100732 0 0 1-17.244091-16.936892v-43.048788a17.100732 17.100732 0 0 0-17.264571-16.916412h-51.670833a17.100732 17.100732 0 0 1-17.244091-16.936892c0-9.379802 7.679969-16.916412 17.244091-16.916413h51.568433a17.203131 17.203131 0 0 0 17.366971-16.936892l0.102399-8.253407a17.878968 17.878968 0 0 0-18.104247-17.858489h-50.933556a17.100732 17.100732 0 0 1-17.244091-16.916412c0-9.297883 7.679969-16.936892 17.244091-16.936892h19.90648c13.148107 0 21.340075-13.823945 15.03226-25.06742l-71.966432-128.101887c-6.307815-11.243475 2.007032-25.06742 15.05274-25.06742h34.303862c6.512614 0 12.51323 3.604466 15.359939 9.277403l58.593045 114.687541c6.328295 12.369871 24.412062 12.369871 30.842757 0l58.613526-114.687541a17.264571 17.264571 0 0 1 15.359938-9.277403h34.303863c13.250507 0.204799 21.565354 13.926344 15.257539 25.190299z" /></svg>