<?xml version="1.0" standalone="no"?><!DOCTYPE svg PUBLIC "-//W3C//DTD SVG 1.1//EN" "http://www.w3.org/Graphics/SVG/1.1/DTD/svg11.dtd"><svg class="icon" width="200px" height="200.00px" viewBox="0 0 1024 1024" version="1.1" xmlns="http://www.w3.org/2000/svg"><path fill="#838a9a" d="M938.666667 938.752H85.333333a85.333333 85.333333 0 0 1-85.333333-85.333333v-256c0-38.058667 16.896-71.850667 43.264-95.274667 24.96-95.402667 85.546667-370.090667 85.546667-370.090667C142.464 82.901333 204.544 84.949333 213.333333 85.376h597.333334c63.018667 0 75.776 21.333333 84.522666 46.677333 0 0 50.005333 210.090667 85.546667 370.090667A127.018667 127.018667 0 0 1 1024 597.418667v256a85.333333 85.333333 0 0 1-85.333333 85.333333z m-113.877334-749.226667c-4.181333-14.592-19.541333-18.773333-31.104-18.773333H230.144c-9.941333 0-23.637333-2.090667-31.36 14.549333-16.512 52.736-65.450667 284.117333-65.450667 284.117334h171.392l36.608 4.266666c24.746667 8.874667 42.666667 31.914667 42.666667 59.733334 0-28.458667 5.376 106.666667 128 106.666666s128-135.125333 128-106.666666c0-27.818667 17.92-50.858667 42.666667-59.733334l36.608-4.309333h168.704s-47.402667-208.341333-63.189334-279.850667zM938.666667 597.418667a42.666667 42.666667 0 0 0-42.666667-42.666667h-170.666667s-39.338667 170.666667-213.333333 170.666667-213.333333-170.666667-213.333333-170.666667H128a42.666667 42.666667 0 0 0-42.666667 42.666667v213.333333a42.666667 42.666667 0 0 0 42.666667 42.666667h768a42.666667 42.666667 0 0 0 42.666667-42.666667v-213.333333z" /></svg>