<?xml version="1.0" standalone="no"?><!DOCTYPE svg PUBLIC "-//W3C//DTD SVG 1.1//EN" "http://www.w3.org/Graphics/SVG/1.1/DTD/svg11.dtd"><svg class="icon" width="200px" height="200.00px" viewBox="0 0 1024 1024" version="1.1" xmlns="http://www.w3.org/2000/svg"><path fill="#838a9a" d="M761.173333 25.6H263.395556C175.786667 25.6 104.106667 97.28 104.106667 184.888889v657.066667c0 87.608889 71.68 159.288889 159.288889 159.288888h497.777777c87.608889 0 159.288889-71.68 159.288889-159.288888V184.888889c0-87.608889-71.68-159.288889-159.288889-159.288889zM263.395556 116.622222h497.777777c37.546667 0 68.266667 30.72 68.266667 68.266667v416.995555H195.128889V184.888889c0-37.546667 30.151111-68.266667 68.266667-68.266667zM761.173333 910.222222H263.395556c-37.546667 0-68.266667-30.72-68.266667-68.266666v-149.617778h634.311111v149.617778c0 37.546667-30.72 68.266667-68.266667 68.266666z"  /><path fill="#838a9a" d="M466.488889 806.684444a45.511111 45.511111 0 1 0 91.022222 0 45.511111 45.511111 0 0 0-91.022222 0z"  /></svg>