<?xml version="1.0" standalone="no"?><!DOCTYPE svg PUBLIC "-//W3C//DTD SVG 1.1//EN" "http://www.w3.org/Graphics/SVG/1.1/DTD/svg11.dtd"><svg class="icon" width="200px" height="200.00px" viewBox="0 0 1024 1024" version="1.1" xmlns="http://www.w3.org/2000/svg"><path fill="#838a9a" d="M511.333 4.503C231.508 4.503 4.667 231.345 4.667 511.17s226.841 506.667 506.667 506.667S1018 790.995 1018 511.17 791.158 4.503 511.333 4.503z m0 945.779c-242.515 0-439.112-196.597-439.112-439.112S268.818 72.057 511.333 72.057 950.446 268.654 950.446 511.17 753.849 950.282 511.333 950.282z m0 0M680.222 511.17c18.653 0 33.78-15.122 33.78-33.78 0-18.652-15.127-33.774-33.78-33.774H545.114a33.673 33.673 0 0 0 7.426-7.773l89.511-143.217c9.891-15.853 5.051-36.723-10.808-46.613-15.854-9.885-36.723-5.046-46.613 10.808L511.333 373.02l-72.621-116.2c-9.891-15.853-30.76-20.693-46.613-10.808-15.86 9.89-20.699 30.76-10.809 46.613l89.511 143.217a33.813 33.813 0 0 0 6.752 7.773H342.444c-18.653 0-33.78 15.122-33.78 33.774 0 18.658 15.127 33.78 33.78 33.78h135.108v101.335H342.444c-18.653 0-33.78 15.122-33.78 33.774 0 18.658 15.127 33.78 33.78 33.78h135.108v101.335c0 18.653 15.127 33.774 33.78 33.774s33.78-15.121 33.78-33.774V680.059h135.109c18.653 0 33.78-15.122 33.78-33.78 0-18.652-15.127-33.774-33.78-33.774H545.114V511.17h135.108z m0 0" /></svg>